<?xml version="1.0" standalone="no"?>
<!DOCTYPE svg PUBLIC "-//W3C//DTD SVG 20010904//EN"
 "http://www.w3.org/TR/2001/REC-SVG-20010904/DTD/svg10.dtd">
<svg version="1.0" xmlns="http://www.w3.org/2000/svg"
 width="680.000000pt" height="680.000000pt" viewBox="0 0 680.000000 680.000000"
 preserveAspectRatio="xMidYMid meet">
<metadata>
Created by potrace 1.14, written by Peter Selinger 2001-2017
</metadata>
<g transform="translate(0.000000,680.000000) scale(0.100000,-0.100000)"
fill="#000000" stroke="none">
<path d="M5251 6460 c-9 -5 -3 -17 23 -43 20 -20 36 -40 36 -46 0 -5 -28 3
-62 17 -59 23 -70 24 -188 19 -250 -11 -437 -91 -610 -261 -61 -61 -206 -160
-257 -177 -35 -11 -44 -28 -15 -31 9 0 22 -2 27 -3 6 -2 27 -3 48 -4 l39 -1
-22 -32 c-38 -57 -90 -171 -110 -243 -20 -69 -28 -195 -12 -195 4 0 21 30 37
66 16 36 33 68 37 70 5 3 6 -31 4 -74 -6 -116 2 -142 74 -218 43 -47 59 -71
54 -83 -19 -46 -16 -110 8 -163 26 -56 71 -108 94 -108 8 0 14 -8 14 -17 0
-30 40 -100 83 -143 78 -81 265 -143 462 -156 58 -4 108 -11 111 -15 2 -4 -6
-13 -18 -20 -19 -10 -78 -52 -143 -102 -45 -34 -155 -111 -183 -129 -28 -17
-38 -19 -53 -10 -10 7 -24 12 -30 12 -11 0 -39 24 -39 35 0 3 -7 22 -17 43 -9
20 -17 39 -18 42 -1 3 -6 16 -12 30 -6 14 -19 45 -29 70 -9 25 -34 76 -54 115
l-37 69 -44 -3 c-97 -7 -314 -108 -444 -208 -41 -32 -42 -33 -110 -78 -33 -22
-87 -61 -120 -86 -33 -26 -75 -54 -93 -63 -18 -9 -35 -22 -38 -29 -9 -26 84
-294 128 -365 18 -29 25 -33 52 -29 53 8 88 17 176 44 47 15 96 28 110 30 14
3 29 8 35 14 5 5 17 9 26 9 10 0 32 19 51 42 18 24 41 53 51 64 l19 22 22 -22
c13 -11 29 -39 37 -61 32 -95 103 -155 182 -155 20 0 45 -7 54 -15 10 -8 26
-21 37 -28 18 -13 18 -14 -2 -53 -23 -45 -34 -91 -34 -140 0 -31 -5 -37 -43
-55 -24 -11 -65 -26 -92 -34 -79 -22 -338 -118 -344 -128 -4 -5 -9 -5 -13 1
-3 6 -23 11 -44 10 -24 0 -65 13 -112 36 -120 58 -210 47 -210 -26 0 -47 147
-222 273 -323 26 -21 47 -45 47 -53 0 -41 54 -92 98 -92 21 0 108 46 136 71
20 19 21 19 36 -1 12 -16 23 -20 44 -16 34 6 91 24 131 41 56 24 115 45 126
45 6 0 10 -10 9 -22 -1 -13 -2 -30 -1 -40 1 -19 96 -85 131 -90 23 -3 25 -7
24 -55 -2 -82 -12 -117 -45 -163 -84 -116 -75 -187 25 -195 27 -3 62 1 80 9
17 7 35 13 40 14 5 0 12 4 15 9 3 4 26 18 51 31 25 12 62 38 83 57 21 18 50
36 65 40 44 9 95 61 94 96 0 16 -4 34 -9 41 -4 7 -8 15 -8 18 -1 17 -31 76
-42 83 -7 4 -13 15 -13 22 0 8 -4 15 -10 15 -21 0 -9 18 20 30 36 15 36 17 25
123 l-7 68 64 -33 c59 -30 70 -33 163 -33 94 0 104 2 169 34 98 49 149 108
160 189 2 9 11 19 22 21 10 2 23 9 27 17 4 8 13 14 19 14 12 0 50 39 73 74 10
15 13 41 10 86 -4 71 -14 107 -73 254 -35 86 -39 103 -30 134 8 29 6 42 -12
74 -20 35 -21 45 -12 111 15 112 8 294 -13 358 -19 57 -62 111 -108 135 -31
16 -67 50 -67 62 0 18 -40 32 -64 22 -28 -10 -39 -1 -30 24 4 9 36 47 73 85
88 91 116 125 142 171 21 38 24 39 63 34 23 -3 55 -1 71 6 17 6 31 11 33 10 1
0 12 9 24 20 12 11 25 20 29 20 15 0 71 98 89 158 38 122 16 229 -55 274 -32
20 -36 27 -31 54 2 18 0 36 -6 42 -8 8 -8 15 0 25 7 8 8 18 4 22 -4 5 1 5 11
2 20 -7 22 5 5 36 -18 32 -20 57 -4 35 42 -57 31 51 -13 121 -17 28 -31 53
-31 55 0 2 23 6 50 10 62 8 64 25 6 49 -26 11 -70 45 -108 83 -69 71 -207 180
-247 196 l-26 10 35 13 c19 7 39 10 44 7 5 -3 6 0 2 6 -4 7 -1 12 6 13 7 0 0
7 -17 14 -35 16 -83 11 -137 -15 -36 -17 -38 -17 -38 0 0 25 -34 65 -83 98
-52 36 -70 42 -86 32z"/>
<path d="M2055 6389 c-27 -4 -62 -12 -78 -18 -38 -15 -105 -83 -113 -115 -5
-23 -10 -26 -33 -21 -157 34 -350 22 -452 -29 -18 -9 -44 -16 -58 -16 -81 -1
-209 -43 -292 -97 l-35 -23 -44 21 c-60 29 -143 35 -212 15 -72 -21 -158 -100
-179 -166 -28 -84 14 -195 94 -250 33 -23 33 -23 14 -44 -41 -46 -101 -220
-119 -341 -9 -66 -9 -99 1 -157 25 -147 25 -148 -13 -261 -40 -118 -46 -193
-21 -241 13 -25 14 -41 4 -106 -9 -65 -8 -87 5 -140 9 -35 26 -78 37 -96 11
-18 22 -46 25 -61 3 -15 7 -29 9 -31 7 -7 -27 -115 -61 -194 -63 -147 -57
-205 30 -292 28 -28 60 -69 71 -90 20 -39 99 -113 116 -108 5 1 9 -2 9 -7 0
-23 112 -38 157 -20 16 6 60 12 98 13 42 1 84 9 104 19 19 9 35 16 36 15 5 -7
-54 -383 -69 -445 -10 -38 -39 -109 -67 -158 -118 -214 -136 -274 -100 -331
49 -80 212 -42 364 84 l47 39 43 -41 c23 -22 41 -43 40 -47 -1 -4 -7 -35 -13
-70 -5 -35 -12 -75 -15 -89 -23 -129 -44 -305 -60 -494 -7 -82 -7 -445 0 -536
7 -94 26 -291 30 -320 2 -14 9 -71 14 -128 18 -170 54 -291 105 -345 14 -15
26 -25 26 -21 0 3 8 -3 18 -15 9 -12 27 -23 40 -24 12 -1 22 -5 22 -9 0 -4 3
-7 8 -7 4 1 9 0 12 -1 3 -1 18 -4 33 -6 55 -9 185 -54 273 -95 154 -71 204
-120 204 -199 0 -31 41 -90 76 -108 14 -8 51 -15 82 -17 61 -4 136 10 219 42
10 3 23 7 29 8 28 6 95 58 132 101 22 26 55 77 72 112 22 44 57 89 120 153 50
49 90 96 90 103 0 7 13 26 30 42 16 16 30 34 30 40 0 6 7 17 15 24 26 21 84
152 86 190 1 19 -2 67 -6 106 -5 49 -4 83 5 110 11 34 85 171 100 184 3 3 21
25 40 50 19 25 59 75 90 111 100 119 112 133 159 204 77 113 112 202 126 317
4 36 0 56 -19 94 -13 27 -34 79 -47 116 -21 63 -22 72 -10 120 23 89 47 128
79 128 49 0 128 29 156 56 48 49 32 85 -66 152 l-47 33 29 58 c39 76 33 110
-26 169 -24 23 -46 42 -50 42 -7 0 -43 38 -117 123 -29 33 -65 74 -82 92 -16
18 -52 59 -80 91 -117 136 -267 273 -345 314 -13 7 -31 19 -38 27 -12 12 -34
17 -54 14 -5 0 -8 4 -8 10 0 8 -4 8 -14 0 -11 -9 -15 -8 -20 4 -3 9 -10 14
-15 11 -5 -3 -11 3 -14 13 -6 24 -83 81 -119 88 -16 3 -28 9 -28 12 0 13 24
31 41 31 10 0 24 7 33 15 14 15 71 42 89 44 31 3 106 93 133 160 31 75 35 178
9 227 -13 25 -13 30 2 46 9 10 18 16 21 14 2 -3 26 16 52 42 80 80 111 198 76
290 -16 43 -75 107 -108 118 -12 3 -18 16 -18 37 0 41 -36 115 -61 122 -10 4
-19 10 -19 15 0 5 54 63 120 129 123 124 140 146 140 178 0 18 -236 273 -252
273 -14 0 -137 -110 -280 -251 -67 -66 -67 -66 -82 -45 -8 13 -17 48 -21 79
-4 32 -11 60 -16 63 -5 3 -7 9 -4 14 7 11 -44 158 -75 220 -33 66 -96 157
-158 227 l-54 63 30 29 c44 40 71 115 67 183 -4 71 -26 121 -72 164 -66 62
-128 84 -208 73z m-409 -2904 c35 -145 35 -145 3 -172 -15 -13 -35 -38 -45
-56 -57 -110 -75 -152 -103 -232 -17 -49 -33 -101 -35 -115 -3 -14 -5 -27 -6
-30 -2 -3 -1 -9 0 -15 1 -5 -2 -7 -6 -2 -4 4 -9 15 -10 25 -1 9 -6 39 -12 65
-13 63 -7 123 17 184 10 27 22 65 25 84 3 19 21 96 41 170 19 74 45 174 57
223 l21 89 14 -59 c8 -32 25 -104 39 -159z"/>
</g>
</svg>
